<svg width="260" height="117" viewBox="0 0 260 117" fill="none" xmlns="http://www.w3.org/2000/svg">
<path d="M26.2056 33.7417C31.2546 33.9636 35.2495 35.323 38.1902 37.8198C41.1863 40.3166 42.6844 43.6456 42.6844 47.8069C42.6844 52.0792 41.2973 55.5192 38.5231 58.127C35.7489 60.6792 31.8372 62.0386 26.7882 62.205H26.0391H25.8727C23.154 62.205 20.8236 61.7057 18.8817 60.707C16.9398 59.7083 15.5527 57.5444 14.7204 54.2153V82.0129C14.7204 88.2826 17.3559 91.4174 22.6269 91.4174V92H1.82034V91.4174C7.09133 91.4174 9.72682 88.2826 9.72682 82.0129V43.7288C9.72682 37.4591 7.09133 34.3243 1.82034 34.3243V33.7417H25.1237H26.2056ZM14.7204 50.8031C15.0533 53.9657 15.8023 56.3515 16.9675 57.9605C18.1327 59.5695 19.4643 60.596 20.9623 61.0399C22.4604 61.4283 24.1804 61.6225 26.1224 61.6225C29.3404 61.6225 31.7263 61.0954 33.2798 60.0412C34.8334 58.9315 35.8043 57.4612 36.1927 55.6302C36.6366 53.7437 36.8585 51.136 36.8585 47.8069C36.8585 44.6443 36.5811 42.1198 36.0263 40.2333C35.4714 38.3469 34.334 36.9043 32.614 35.9056C30.894 34.8514 28.3695 34.3243 25.0404 34.3243H22.6269C17.3559 34.3243 14.7204 37.4591 14.7204 43.7288V50.8031ZM73.8317 84.6761C71.8343 87.6168 69.5595 89.8084 67.0072 91.251C64.5104 92.6381 61.9582 93.3316 59.3504 93.3316C57.131 93.3316 55.0226 92.8877 53.0252 92C51.0278 91.0568 49.4188 89.8639 48.1981 88.4213C47.0329 86.9232 46.4504 85.3697 46.4504 83.7606C46.4504 81.5412 46.8665 79.6548 47.6987 78.1012C48.531 76.4922 49.5297 75.1606 50.6949 74.1064C51.9155 73.0522 53.5801 71.776 55.6885 70.278C58.2407 68.5025 60.1272 67.0322 61.3478 65.867C63.3453 63.9805 64.8988 62.0386 66.0085 60.0412C67.1737 57.9883 67.7562 56.185 67.7562 54.6315C67.7562 53.1889 67.2569 52.1069 66.2582 51.3856C65.2595 50.6089 63.7614 50.276 61.764 50.3869C58.6569 50.7753 56.1878 52.1624 54.3568 54.5482C52.5813 56.8786 51.1942 60.4018 50.1955 65.118L46.0342 59.7915C47.8652 56.2405 50.1955 53.6882 53.0252 52.1347C55.8549 50.5256 59.4336 49.7211 63.7614 49.7211C73.2492 49.7211 78.2705 52.9115 78.8253 59.2921V82.0129C78.8253 88.2826 81.7382 91.4174 87.5641 91.4174V92H73.8317V84.6761ZM53.8575 81.5135C53.8575 84.2877 54.6897 86.7013 56.3543 88.7542C58.0188 90.7516 60.0717 91.7503 62.513 91.7503C64.344 91.7503 66.2304 91.0845 68.1724 89.7529C70.1143 88.3658 72.0008 86.2574 73.8317 83.4277V60.3741C73.8317 54.2708 71.0298 50.9418 65.4259 50.3869C67.5343 51.1082 68.5885 52.7173 68.5885 55.214C68.5885 57.1005 67.9504 59.2366 66.6743 61.6225C65.3982 64.0083 63.7891 66.1167 61.8472 67.9476C59.6278 70.1115 57.991 71.8315 56.9368 73.1077C55.8826 74.3838 55.1059 75.6599 54.6065 76.9361C54.1072 78.2122 53.8575 79.738 53.8575 81.5135ZM103.798 64.7018C104.464 61.6502 105.657 58.9592 107.377 56.6289C109.153 54.2986 111.122 52.4953 113.286 51.2192C115.506 49.9431 117.669 49.305 119.778 49.305C122.164 49.305 124.133 50.165 125.687 51.885C127.296 53.5495 128.184 56.0186 128.35 59.2921V82.0129C128.35 88.2826 130.986 91.4174 136.257 91.4174V92H115.45V91.4174C120.721 91.4174 123.357 88.2826 123.357 82.0129V60.3741C123.357 57.7663 122.718 55.7689 121.442 54.3818C120.222 52.9947 118.64 52.3011 116.698 52.3011C114.701 52.3011 112.704 53.0224 110.706 54.465C108.709 55.8521 107.044 57.905 105.713 60.6237C104.436 63.287 103.798 66.4218 103.798 70.0283V82.0129C103.798 88.2826 106.434 91.4174 111.705 91.4174V92H90.8983V91.4174C96.1693 91.4174 98.8048 88.2826 98.8048 82.0129V60.3741C98.8048 54.1044 96.1693 50.9695 90.8983 50.9695V50.3869H103.798V64.7018Z" fill="#F3EBD3"/>
<path d="M185.648 43.7288L184.816 41.8146C182.319 36.8211 178.741 34.3243 174.08 34.3243V33.7417H194.886V34.3243C191.613 34.3243 189.976 35.7114 189.976 38.4856C189.976 39.4843 190.198 40.6495 190.642 41.9811L199.63 61.8721L207.62 43.1463L208.036 41.9811C208.369 40.8714 208.536 39.9004 208.536 39.0682C208.536 37.5701 208.036 36.4049 207.037 35.5727C206.094 34.7404 204.652 34.3243 202.71 34.3243V33.7417H219.438V34.3243C216.83 34.3243 214.639 35.1011 212.863 36.6546C211.143 38.2082 209.617 40.3166 208.286 42.9798L200.046 62.205V82.0129C200.046 88.2826 202.682 91.4174 207.953 91.4174V92H187.146V91.4174C192.417 91.4174 195.053 88.2826 195.053 82.0129V64.6186L185.648 43.7288ZM244.412 77.6851C243.747 80.7367 242.526 83.4277 240.751 85.758C239.031 88.0884 237.061 89.8916 234.841 91.1677C232.678 92.4439 230.541 93.0819 228.433 93.0819C226.047 93.0819 224.05 92.2497 222.441 90.5852C220.887 88.8651 220.027 86.3684 219.861 83.0948V60.3741C219.861 54.1044 217.225 50.9695 211.954 50.9695V50.3869H224.854V82.0129C224.854 84.6206 225.465 86.618 226.685 88.0051C227.961 89.3922 229.57 90.0858 231.512 90.0858C233.51 90.0858 235.507 89.3922 237.505 88.0051C239.502 86.5626 241.139 84.5096 242.415 81.8464C243.747 79.1277 244.412 75.9651 244.412 72.3586V60.3741C244.412 54.1044 241.777 50.9695 236.506 50.9695V50.3869H249.406V82.0129C249.406 88.2826 252.042 91.4174 257.313 91.4174V92H244.412V77.6851Z" fill="#F3EBD3"/>
<path d="M166.399 84.4081L164.21 80.268C163.546 81.6215 162.325 82.7759 160.547 83.7314C158.769 84.6868 156.885 85.1645 154.894 85.1645C153.249 85.1645 151.71 84.7797 150.276 84.01C148.843 83.2669 147.649 82.0992 146.694 80.5068C145.42 78.4102 144.783 76.1676 144.783 73.7791C144.783 71.7621 145.221 69.8513 146.097 68.0466C146.999 66.2419 148.18 64.7557 149.64 63.588C151.126 62.4202 152.705 61.7568 154.377 61.5975L153.859 60.6421C152.426 57.882 151.71 55.5466 151.71 53.6357C151.71 51.8576 152.28 50.5306 153.421 49.6548C154.589 48.7525 156.181 48.3013 158.198 48.3013C159.207 48.3013 160.255 48.4738 161.343 48.8188C162.431 49.1638 163.347 49.6946 164.09 50.4112C164.833 51.1012 165.205 51.9637 165.205 52.9988L161.662 58.8109H161.463L161.662 57.6564C162.06 55.6129 162.259 54.0869 162.259 53.0784C162.259 51.6983 161.954 50.6102 161.343 49.8141C160.733 48.9913 159.685 48.58 158.198 48.58C155.571 48.58 154.257 49.8273 154.257 52.322C154.257 54.3656 155.133 57.0858 156.885 60.4829L165.165 76.2871C165.245 75.7297 165.284 75.1591 165.284 74.5753C165.284 73.9914 165.231 73.0891 165.125 71.8683C165.019 70.6474 164.966 69.7584 164.966 69.2011C164.966 67.5822 165.351 66.3481 166.12 65.4988C166.917 64.6496 168.39 64.2249 170.539 64.2249L168.429 68.4447C168.244 68.4447 167.819 68.4447 167.155 68.4447C166.492 68.4181 166.028 68.5906 165.762 68.9622C165.497 69.3338 165.364 69.9442 165.364 70.7934C165.364 71.165 165.391 71.8019 165.444 72.7042C165.497 73.6066 165.523 74.2833 165.523 74.7345C165.523 75.4776 165.47 76.1278 165.364 76.6852L169.425 84.4081H166.399ZM148.644 78.8348C149.494 80.268 150.714 81.3428 152.307 82.0594C153.899 82.8025 155.571 83.174 157.323 83.174C158.862 83.174 160.255 82.8954 161.503 82.338C162.75 81.7807 163.599 80.9978 164.05 79.9893L154.496 61.8762C153.01 62.0089 151.71 62.6193 150.595 63.7074C149.48 64.769 148.618 66.1092 148.007 67.7281C147.397 69.3205 147.092 70.9925 147.092 72.7441C147.092 75.1061 147.609 77.1363 148.644 78.8348Z" fill="#F3EBD3"/>
</svg>
