<?xml version="1.0" encoding="UTF-8"?>
<svg id="_圖層_1" data-name="圖層_1" xmlns="http://www.w3.org/2000/svg" version="1.1" viewBox="0 0 32 32">
  <!-- Generator: Adobe Illustrator 29.5.1, SVG Export Plug-In . SVG Version: 2.1.0 Build 141)  -->
  <defs>
    <style>
      .st0 {
        fill: #6f5e4b;
      }
    </style>
  </defs>
  <path class="st0" d="M16,30.17c-7.82,0-14.17-6.36-14.17-14.17S8.18,1.83,16,1.83s14.17,6.36,14.17,14.17-6.36,14.17-14.17,14.17ZM16,2.07c-7.68,0-13.93,6.25-13.93,13.94s6.25,13.94,13.93,13.94,13.94-6.25,13.94-13.94S23.68,2.07,16,2.07Z"/>
  <path class="st0" d="M16,32C7.18,32,0,24.82,0,16S7.18,0,16,0s16,7.18,16,16-7.18,16-16,16ZM16,.48C7.44.48.48,7.44.48,16s6.96,15.52,15.52,15.52,15.52-6.96,15.52-15.52S24.56.48,16,.48Z"/>
  <path class="st0" d="M20.48,9.04c.58.69.27,1.91-.29,2.55,1.6,1.4-.22,4.15-2.04,3.13-.29.55-.29,1.04-.64,1.6-.75,1.2-1.6,1.29-2.75.47-.11-.09-.15-.27-.27-.31-.18-.07-.64.07-.98.02-.33-.04-.69-.18-.95-.38-.95,1.8-4.23,1.62-3.72-.91-.89-.2-1.6-1.2-1.46-2.11.11-.75.97-1.71,1.79-1.55-.51-1.15.71-2.75,1.86-2.88.73-.09,1.26.42,1.66,1,.35-.09.73-.13,1.09-.16.22,0,.47.18.58-.07-.24-1.82,2.15-2.35,3.21-1.04,1.17-.4,2.04-.33,2.88.64h.02ZM16.86,8.84c-.56-.58-1.82-.51-1.97.35-.15.86.31.6.66,1.06.44.62.42,1.35.11,2.02-.09.22-.51.67-.51.89,0,.13.35.51.44.69.18.33.07.86.71.67.07,0,.67-.6.73-.69.11-.18.09-.47.22-.53.71-.4.73.78,1.6.71.49-.04,1.06-.71.93-1.2-.02-.09-.29-.62-.33-.67-.27-.24-.69.11-.71-.53-.02-.8.38-.53.62-.69.31-.22.47-.95.35-1.31,0-.02-.47-.38-.53-.42-.27-.09-.69-.09-.95,0-.47.13-.2.27-.29.53-.07.24-.29.55-.58.55-.93,0-.64-.8-.55-1.42l.04-.02ZM13.01,10.66c-.11.11-.09.44-.31.64-.44.4-1,.09-1.04-.47-.02-.4.44-.44.18-.91-.42-.73-1.15-.51-1.66,0-.62.64-.93,1.44-.11,2.06l-.15.38c-.6-.16-.8-.6-1.4-.02-.64.6-.38,1.73.44,1.97.47.13,1.06-.33,1.4.29.13.49-.44.51-.55.75l.04.71c.73.38,1.51.11,1.91-.6.27-.44.11-1.09.78-1.06.49,0,.38.58.62.8.58.49,1.24-.07,1.44-.62.18-.53-.76-1.11-.78-1.68,0-.35.27-.27.38-.4.31-.31.73-1.04.58-1.49-.11-.38-1.44-.71-1.79-.38l.04.02ZM17.13,14.87c-.27.07-.33.27-.64.31-.31.04-.8-.11-.93-.02-.09.04-.64.86-.58,1.02.33.22,1,.51,1.4.31.2-.11.82-1.53.75-1.62Z"/>
  <path class="st0" d="M21.7,18.39s.51.22.64.31c.6.4,1.15.82,1.75,1.22.27.18.6.27.84.47.8.67.55,1.17.04,1.93.16.51.56.55.56,1.15,0,.44-.69,1.4-1.02,1.71-.62.58-1.06-.07-1.55-.4-.47.27-1.17,1.24-1.73.73-.18-.18-.62-1.6-.8-1.97-.22-.53-.56-1.04-.78-1.6-.24.02-.42.07-.69,0-.35-.11-1.51-.89-1.82-1.15-.69-.55-.44-1.55.05-2.19-.75-.53-.42-1.51.24-1.97.93-.64,1.66.07,2.39-.33.75-.42-.13-1.22.31-1.35.44-.13.8.78.78,1.11,0,.29-.29.47-.24.64,0,.04.44.53.55.69.13.22.42.95.44,1l.02.02ZM20.14,17.82c-.09-.16-.2-.44-.38-.51-.22-.09-.38.02-.58,0-.24-.02-.44-.29-.62-.29-.38-.04-1.11.51-.84.89.07.11.86.2.91.73.02.55-.98.58-.73,1.31.02.07,1.22.84,1.29.86.46.11,1.29-.51,1.4-.95.15-.6-.02-1.4-.31-1.95-.04-.07-.11-.07-.13-.09ZM21.96,20.61c-.11-.11-.15-.33-.35-.29-.42.71.33,1.13.69,1.68.46.71.82,1.51,1.4,2.15.04.07.2.27.29.22.16-.31.73-.69.51-1.06,0-.04-.18-.07-.22-.13-.69-.84-1.53-1.8-2.28-2.55l-.02-.02ZM23.47,20.52s-.27-.22-.22,0l1.04,1.04c.51-.22-.67-.91-.82-1.04ZM20.97,22.03s-.24-.44-.33-.47l-.44.2,1.62,2.77c.13-.18.51-.38.44-.6-.42-.64-.8-1.31-1.29-1.91Z"/>
  <path class="st0" d="M10.7,19.79c-.22-.18-1.2-1.37-.73-1.53.47-.16.42.2.56.38.51.62,1.24,1.15,1.86.31.13-.18.11-.42.33-.49.55-.16.53.2.89.38.18.09.64.2.82.16.49-.11.64-1.29,1.31-1.13.55.13.11,1.29-.07,1.64-.4.69-1.24.8-1.97.58-.35-.11-.51-.44-.91-.22-.33.18-.27.35-.8.35-.47,0-.93-.09-1.31-.4l.02-.02Z"/>
  <path class="st0" d="M15.22,6.93s-.86.04-1.02.16c-.16.11-.13.69-.6.67-.64,0-.29-1.26-1.24-1.06-.22.04-.86.69-.84.86,0,.09.24.2.04.33-.64.33-.6-.31-.44-.78.24-.78,1.02-1.44,1.86-1.2.2.07.62.42.71.42.05,0,.58-.31.84-.35,1.15-.24,2.08.47,1.35,1.6-.6.29-.62-.58-.66-.62v-.02Z"/>
  <path class="st0" d="M6.78,15.53v.24l-.24.04c0,.69.29,1.44,1.04,1.53.35.04,1.09-.24,1.15.31.11.78-1.46.58-1.93.29-.71-.42-1.22-1.88-.56-2.48l.51.07h.02Z"/>
  <path class="st0" d="M7,10.19c-.8-.95.38-3.19,1.69-2.15.09.07.53.53.33.67-.24.18-.42-.13-.64-.2-.78-.18-.78.64-.69,1.17.04.27.33.47.09.75-.24.31-.62-.04-.8-.27l.02.02Z"/>
  <path class="st0" d="M11.41,12.08c.84-.2,1.24.71.64,1.31-.24.24-.62.16-.89,0-.53-.31-.31-1.17.27-1.31h-.02Z"/>
  <path class="st0" d="M16.4,11.94c-.29-.47.13-1.2.69-1.22,1-.04.84,1.6-.18,1.49-.13,0-.46-.2-.51-.29v.02Z"/>
</svg>