<svg width="209" height="162" viewBox="0 0 209 162" fill="none" xmlns="http://www.w3.org/2000/svg">
<g id="animals" clip-path="url(#clip0_186_609)">
<path d="M86.8202 70.1308C89.4965 73.8439 92.5138 77.4699 94.4903 81.5926C94.7002 82.0285 96.5369 87.1885 96.9567 86.8921C97.1841 86.4127 97.5951 85.6108 97.9012 85.2099C102.335 79.4484 109.621 71.5602 115.323 67.0714C116.145 66.4264 120.457 63.3147 121.104 65.2584C121.594 66.7315 119.757 66.8709 118.988 67.4288C113.373 71.4557 108.388 77.7749 103.254 82.4381L98.5922 87.9293C98.391 88.3826 99.4493 88.3826 99.8078 88.5656C102.397 89.8905 104.067 91.1369 104.05 94.2922C106.708 92.1219 109.568 90.1607 112.463 88.3129C115.157 86.5958 118.646 84.2947 121.436 82.8914C121.926 82.6473 124.427 81.5229 124.637 82.3945C124.978 84.0332 122.696 84.2511 122.302 85.3842C121.961 86.3778 122.197 88.0339 122.066 89.0799C121.515 93.4293 120.71 97.6654 120.684 102.05C120.999 102.686 121.305 103.47 121.62 104.081C124.777 110.182 127.768 113.267 124.734 120.946C123.352 124.442 120.912 128.12 119.049 131.432C118.918 131.659 118.559 131.676 118.437 131.938C118.262 132.321 118.297 139.242 118.349 140.297C118.533 144.088 119.355 147.827 119.88 151.567C119.906 151.75 120.089 151.95 120.194 152.116C119.652 152.595 118.953 152.63 118.297 153.005C117.527 153.441 115.314 156.814 115.787 157.328C116.407 157.38 117.326 157.642 117.938 157.494C119.189 157.206 119.906 155.567 121.27 156.387C122.084 156.875 122.022 157.929 122.18 158.714C123.509 157.712 124.908 156.735 126.666 157.067C128.101 154.975 129.185 152.56 130.698 150.521C133.042 147.383 136.304 144.393 138.648 141.186C142.4 138.396 145.006 136.967 149.423 139.434C151.557 140.628 151.933 141.456 153.35 143.173C155.571 145.875 158.09 148.708 159.953 151.654C161.37 153.903 162.516 156.535 163.915 158.827C165.131 159.263 166.46 159.246 167.737 159.167C168.104 159.141 168.402 158.818 168.708 158.784C169.049 158.74 169.469 158.975 170.011 158.906C171.673 158.679 170.816 157.398 171.813 156.517C172.923 155.968 174.856 157.424 175.084 155.602C175.337 153.641 173.903 153.589 173.553 151.889L175.066 143.548C172.906 141.046 172.259 137.743 171.165 134.692C170.195 131.972 169.241 130.761 169.25 127.562C169.25 124.616 171.384 117.861 173.019 115.316C173.326 114.828 174.524 113.756 174.568 113.616C175.25 111.393 173.614 106.713 174.025 104.272L174.533 103.836L175.197 104.037C177.541 112.108 177.926 120.702 178.801 129.061C183.619 128.303 187.319 127.518 189.916 123.117C191.963 119.648 192.26 117.39 196.257 115.307C203.569 111.498 211.877 116.667 208.012 124.938C204.129 133.254 191.465 141.735 182.168 141.569C181.101 141.552 179.876 141.22 178.801 141.116C178.512 143.243 178.075 145.361 177.751 147.479C177.594 148.533 176.955 151.096 176.99 151.941C176.999 152.299 177.882 153.615 178.031 154.26C178.608 156.683 177.83 158.513 175.495 159.49C175.092 159.655 174.576 159.577 174.148 159.777C173.623 160.021 172.941 160.963 172.171 161.285C170.352 162.07 165.297 162.244 163.434 161.625C161.326 160.919 161.895 160.109 161.081 158.635C160.802 158.13 160.128 157.72 159.752 157.18C156.079 151.75 153.569 145.178 147.324 141.996C145.724 141.177 145.138 141.264 143.511 141.996C140.782 143.234 134.406 151.017 132.517 153.746C131.302 155.506 129.36 160.231 127.042 160.361C126.491 160.396 125.809 160.065 125.468 160.152C125.127 160.239 123.955 161.529 123.151 161.791C122.206 162.096 120.579 162.096 119.801 161.425C119.46 161.128 119.337 160.309 118.874 160.152C118.279 159.952 117.125 160.187 116.373 160.091C110.539 159.333 114.58 153.371 117.37 151.392C116.04 148.838 115.524 145.945 115.314 143.077C115.026 139.233 115.122 134.43 115.306 130.56C115.69 122.271 116.915 114.052 117.203 105.789C117.431 99.3389 119.084 93.0371 119.958 86.6568L103.98 95.9832C103.507 96.4364 104.373 97.7351 104.522 98.476C105.02 100.925 102.991 104.211 100.499 104.682C99.8253 104.804 98.8545 104.386 98.5747 104.595C98.3385 104.769 98.2948 105.423 98.0849 105.737C95.4174 109.729 91.6392 109.345 88.1408 106.687C86.3305 105.31 85.6658 103.444 86.6366 101.283C87.2575 99.8967 87.345 100.882 87.4062 99.06C87.4237 98.6765 87.6511 98.1796 87.5986 97.9269C87.5636 97.709 85.4296 94.6321 85.0885 94.1963C84.1702 92.9935 80.1034 89.0886 79.8585 88.0775C79.7973 87.8248 79.9722 87.6068 79.9809 87.3628C80.5319 86.9706 82.9458 88.8881 83.4618 89.3239C85.4471 90.9975 87.6423 93.2811 89.0854 95.4253C89.5402 95.6955 90.5022 95.0767 91.0357 95.0244C95.2162 94.5973 98.8983 97.3952 98.8021 101.727C100.245 102.067 102.021 99.9752 101.251 98.7113C100.971 98.2494 99.2743 98.3017 99.2831 96.9768C99.2918 95.6519 100.612 95.7914 100.936 94.7193C101.478 92.9499 101.076 92.2526 99.7116 91.1979C98.2423 90.0648 97.6651 90.213 96.1958 89.8556C93.3971 89.1845 92.2252 83.6322 91.062 81.2789C90.6247 80.3898 89.9687 79.3613 89.4527 78.4809C85.7357 72.1181 81.389 66.0777 77.4621 59.8456L77.4097 59.0873C77.6633 59.0873 77.9257 59.0524 78.1793 59.1309C79.6224 59.619 85.5171 68.344 86.8027 70.1221L86.8202 70.1308ZM94.9976 104.638C96.4494 102.86 96.2745 99.365 94.2542 98.0576C92.8111 97.1163 90.1786 96.7763 89.1991 98.5021C88.5082 99.7224 89.0592 100.132 89.0679 101.143C89.0679 101.945 88.4994 102.503 89.0941 103.436C89.3565 103.854 91.9191 105.336 92.4526 105.414C93.4408 105.554 94.3766 105.414 95.0063 104.638H94.9976ZM204.295 118.027C201.505 115.673 196.362 117.922 194.613 120.615C191.578 125.296 191.508 128.843 185.202 130.935C183.121 131.624 180.969 131.999 178.818 132.339C179.247 134.605 178.739 136.749 178.801 139.033C181.958 139.573 184.914 139.05 187.922 138.048C193.712 136.13 205.082 127.98 205.738 121.513C205.886 120.031 205.423 118.985 204.286 118.027H204.295Z" fill="#F3EBD3"/>
<path d="M21.8647 111.568C21.9871 110.696 22.853 110.208 23.369 111.001C23.6838 111.489 23.9025 114.017 23.9462 114.802C24.5059 125.034 23.0891 136.043 23.7188 146.102C23.7888 147.2 24.331 148.612 24.2173 149.571C24.1561 150.076 23.6926 149.911 23.5351 150.303C23.4477 150.529 23.5439 150.991 23.4827 151.061C23.3165 151.244 21.9959 150.913 21.5935 150.965C20.1155 151.157 19.9056 153.231 19.9931 154.417C21.1213 155.053 22.5381 153.397 23.5089 154.643C24.1911 155.524 23.1241 156.997 23.2728 158.008C23.6138 158.479 26.6662 157.903 27.2521 157.729C28.4153 157.372 30.0246 155.794 30.2345 158.261C30.663 158.627 31.8 157.293 32.0886 156.979C35.0272 153.702 37.8259 147.147 40.231 143.077C41.5866 140.785 45.2948 133.864 47.8312 133.271C48.1985 133.184 48.5746 133.498 48.9419 133.463C49.3354 133.437 49.6241 133.01 49.9914 132.879C55.3788 131.005 58.746 131.38 62.0782 136.182C66.2674 142.214 67.9204 149.945 72.8881 155.48C75.1008 157.938 76.6226 158.941 80.1122 158.034C79.0539 155.227 83.6542 155.628 83.6805 153.746C83.698 152.046 82.045 151.715 81.4153 150.695C80.1296 148.603 81.2928 143.478 81.3803 141.011C81.7739 130.325 80.8118 118.593 80.2171 107.863C80.1821 107.157 79.0014 103.209 80.9255 104.377C81.5815 104.778 82.1412 108.168 82.2811 109.049C84.0653 120.458 85.0798 133.969 84.4064 145.387C84.3102 146.991 84.0653 148.638 83.9428 150.233C85.9544 151.331 86.6278 153.99 85.5696 156.003C85.4121 156.308 84.179 157.136 84.0915 157.38C83.9254 157.851 84.3452 158.697 83.9341 159.464C83.3131 160.605 80.4357 161.399 79.1851 161.503C75.6343 161.808 74.1387 161.477 71.6199 159.063C67.5268 155.132 65.4891 150.207 63.0402 145.326C61.6934 142.632 59.0608 135.598 56.2097 134.57C54.2943 133.881 51.4869 134.239 49.5978 134.927C48.076 137.133 46.2919 139.155 44.7876 141.369C43.6069 143.103 42.1901 145.369 41.0793 147.174C39.1465 150.329 34.5987 160.57 30.1208 160.143C29.666 160.1 29.2724 159.716 29.1937 159.716C29.08 159.716 28.6077 160.248 28.3104 160.396C24.9432 162.122 19.9143 161.86 20.2292 157.119C19.7044 157.067 18.7162 156.953 18.3051 156.666C18.0252 156.465 18.0777 156.134 17.9203 155.89C17.8153 155.733 17.5442 155.724 17.518 155.681C17.483 155.602 17.4218 154.155 17.4305 153.99C17.5792 151.61 18.9086 149.353 21.4011 149.004C19.7569 145.195 20.7365 140.846 20.9464 136.854C21.0251 135.293 20.7889 133.576 21.165 132.095C16.9757 132.591 13.8884 130.97 12.9002 126.778C12.0081 122.986 13.25 118.323 16.7833 116.257C18.6549 115.159 20.0105 115.124 21.8647 116.344C22.0133 114.863 21.6548 113.023 21.8647 111.594V111.568ZM21.5935 118.21C17.448 115.987 14.903 122.036 15.7163 125.348C15.9262 126.194 17.0719 128.469 17.9028 128.73C18.4888 128.913 20.9376 129.053 21.1388 128.451L21.5935 118.21Z" fill="#F3EBD3"/>
<path d="M178.669 66.6357C180.305 68.5445 179.421 71.9613 177.891 73.7743C182.386 77.6879 177.27 85.3582 172.18 82.4992C171.367 84.042 171.384 85.4192 170.396 86.9707C168.262 90.3177 165.9 90.5879 162.682 88.2519C162.358 88.0166 162.227 87.5023 161.912 87.389C161.423 87.2147 160.084 87.5982 159.149 87.4675C158.213 87.3367 157.216 86.9881 156.49 86.4303C153.805 91.4857 144.595 90.9801 145.995 83.9025C143.528 83.3447 141.517 80.5381 141.884 78.0278C142.199 75.901 144.613 73.2687 146.948 73.6871C145.505 70.4795 148.96 65.9645 152.204 65.5984C154.268 65.3631 155.781 66.8013 156.866 68.3789C157.854 68.1436 158.895 68.0128 159.901 67.9605C160.522 67.9257 161.195 68.4399 161.536 67.7862C160.854 62.6698 167.58 61.2229 170.579 64.8488C173.894 63.7245 176.325 63.8988 178.669 66.6357ZM168.533 66.0865C167.002 64.4653 163.408 64.6571 162.997 67.0976C162.586 69.5382 163.88 68.7537 164.842 70.096C166.093 71.8305 166.032 73.8527 165.166 75.7529C164.895 76.3456 163.758 77.6356 163.758 78.2108C163.758 78.5595 164.746 79.6054 165.008 80.1197C165.498 81.0785 165.192 82.5341 166.994 81.985C167.186 81.924 168.883 80.294 169.023 80.0674C169.311 79.588 169.276 78.7687 169.652 78.5508C171.646 77.4264 171.708 80.7037 174.165 80.5119C175.538 80.3986 177.174 78.4985 176.806 77.1649C176.737 76.9296 176.002 75.4216 175.879 75.3083C175.119 74.6023 173.955 75.6395 173.877 73.8004C173.789 71.5429 174.961 72.3099 175.652 71.848C176.553 71.2466 176.946 69.1634 176.614 68.1784C176.588 68.0913 175.293 67.0976 175.11 67.0279C174.384 66.7577 173.186 66.81 172.442 67.0279C171.157 67.4027 171.874 67.7513 171.655 68.5358C171.463 69.2418 170.824 70.0699 170.063 70.0786C167.44 70.1135 168.262 67.8385 168.515 66.0778L168.533 66.0865ZM157.697 71.1943C157.391 71.508 157.434 72.4581 156.84 72.9985C155.615 74.1142 154.041 73.26 153.936 71.6911C153.857 70.5493 155.16 70.4534 154.408 69.1634C153.219 67.1238 151.164 67.7426 149.756 69.1808C147.989 70.9851 147.167 73.199 149.458 74.9597L149.047 76.0056C147.342 75.5785 146.826 74.306 145.12 75.9185C143.336 77.6094 144.071 80.7473 146.38 81.4446C147.674 81.8368 149.353 80.5468 150.333 82.2726C150.718 83.6323 149.065 83.6759 148.75 84.4081L148.846 86.4041C150.919 87.4326 153.079 86.744 154.207 84.748C154.924 83.4842 154.531 81.7322 156.376 81.7932C157.74 81.8368 157.426 83.4144 158.108 83.9984C159.7 85.3582 161.624 83.8328 162.175 82.2552C162.691 80.7734 160.041 79.1522 159.997 77.5135C159.971 76.4937 160.74 76.7465 161.055 76.4066C161.912 75.5088 163.102 73.5041 162.708 72.2315C162.367 71.142 158.65 70.2355 157.688 71.1943H157.697ZM169.268 82.9612C168.542 83.1181 168.314 83.6846 167.466 83.8328C166.618 83.981 165.227 83.5365 164.851 83.7631C164.632 83.9025 163.058 86.16 163.25 86.6307C164.212 87.267 166.049 88.0863 167.169 87.4762C167.72 87.1711 169.46 83.1704 169.259 82.9612H169.268Z" fill="#F3EBD3"/>
<path d="M139.575 20.0909C140.275 20.6662 141.718 19.9776 142.636 19.9253C146.939 19.6551 151.758 20.0299 155.869 21.2676C157.539 19.5941 159.219 17.8334 161.431 16.8746C172.801 11.9325 171.594 26.4973 168.62 32.9822C169.714 34.9695 171.025 36.9394 171.594 39.1446C174.559 38.8918 177.585 37.7239 180.532 37.5408C181.284 37.4972 184.442 37.2619 184.354 38.3514C183.077 39.3451 181.232 39.1533 179.675 39.4671C177.279 39.9378 174.917 40.5915 172.512 41.0186C173.562 43.3284 173.614 45.5075 173.675 47.9654L183.602 49.0724C185.211 49.9179 182.771 50.4583 181.914 50.4757C179.78 50.528 177.506 49.9527 175.416 49.8133C174.681 49.761 173.938 49.8307 173.212 49.8133C173.247 50.467 173.116 51.0859 172.906 51.7047C172.311 53.4131 170.317 56.9693 168.524 57.5359C167.632 57.8148 166.259 57.8409 166.241 56.6294C166.224 55.6619 167.221 55.5137 167.754 54.921C168.988 53.5613 169.749 51.295 170.422 49.5867C170.09 49.2903 166.381 50.345 165.655 50.3014C163.95 50.1881 165.122 48.9678 166.285 48.593C167.151 48.3141 170.107 48.0352 170.431 47.8521C171.332 47.3292 170.781 42.7618 170.212 41.8031C169.311 41.1493 164.151 43.956 164.195 42.021C164.23 40.4259 169.434 40.0947 169.486 39.5107L166.495 32.5464C166.801 27.9617 169.119 24.2398 167.422 19.5767C166.373 16.6916 161.764 18.8096 159.901 19.9776C159.603 20.1694 157.601 21.6685 157.522 21.7906C157.259 22.2002 157.723 22.6622 157.627 23.0283C157.513 23.2811 157.216 23.4728 156.962 23.5425C156.087 23.7692 152.143 22.2351 150.822 22.4966L150.499 22.854C150.919 30.0623 144.954 29.6788 146.729 22.2438L144.412 22.0172C144.114 23.2898 143.765 27.3603 142.531 27.9181C141.823 28.2406 140.686 27.7351 140.38 27.0465C139.82 25.7652 140.843 22.4181 140.677 22.2438L137.686 22.9063C137.153 22.3658 137.905 21.5727 137.782 21.3112C137.695 21.1107 135.194 18.2866 134.87 17.9467C132.981 15.9943 131.415 14.312 128.958 16.7003C126.955 18.6527 124.191 26.3056 123.938 29.0774C123.894 29.5655 124.55 30.2628 123.492 30.4719C122.189 30.7422 122.582 28.7548 122.687 27.9965C123.308 23.5687 125.704 12.4555 131.722 12.961C133.182 13.0831 135.272 14.3382 136.252 15.4016C137.231 16.465 138.683 19.3413 139.575 20.0822V20.0909Z" fill="#F3EBD3"/>
<path d="M182.115 92.8541C182.194 92.9413 183.523 93.4991 183.891 93.7432C185.561 94.8588 187.153 96.053 188.815 97.1774C189.549 97.6742 190.511 97.927 191.202 98.5022C193.441 100.359 192.759 101.78 191.351 103.906C191.779 105.362 192.934 105.458 192.925 107.157C192.925 108.421 191.018 111.054 190.083 111.917C188.351 113.538 187.065 111.742 185.692 110.775C184.363 111.524 182.413 114.279 180.821 112.84C180.305 112.37 179.054 108.369 178.599 107.34C177.961 105.876 177.016 104.403 176.422 102.895C175.731 102.991 175.206 103.052 174.506 102.852C173.492 102.555 170.256 100.359 169.364 99.6266C167.448 98.049 168.139 95.2598 169.486 93.4904C167.352 91.9825 168.279 89.2717 170.195 87.9381C172.783 86.1339 174.865 88.1038 176.903 86.9794C179.045 85.794 176.535 83.5887 177.768 83.1965C179.002 82.8043 180.007 85.3494 179.964 86.2995C179.929 87.0927 179.15 87.6069 179.273 88.1125C179.308 88.2345 180.541 89.6117 180.83 90.0649C181.206 90.6576 182.002 92.7408 182.106 92.8454L182.115 92.8541ZM177.734 91.2067C177.471 90.7884 177.148 89.9865 176.701 89.786C176.072 89.5071 175.643 89.8819 175.066 89.8034C174.393 89.7163 173.798 89.0277 173.326 88.9754C172.25 88.8621 170.238 90.3961 170.929 91.4857C171.139 91.8256 173.387 92.0348 173.457 93.5078C173.527 95.0593 170.693 95.0942 171.393 97.1599C171.463 97.3691 174.812 99.5307 175.022 99.583C176.36 99.9143 178.634 98.1623 178.975 96.9072C179.439 95.2336 178.879 92.9761 178.083 91.4682C177.987 91.2852 177.777 91.259 177.734 91.1893V91.2067ZM182.85 99.0775C182.535 98.7637 182.421 98.1623 181.827 98.2495C180.663 100.263 182.754 101.44 183.759 102.939C185.071 104.909 186.086 107.166 187.66 108.953C187.809 109.119 188.237 109.711 188.456 109.607C188.919 108.744 190.529 107.689 189.917 106.643C189.855 106.539 189.444 106.469 189.269 106.26C187.371 103.889 184.993 101.239 182.859 99.0862L182.85 99.0775ZM187.074 98.8073C186.899 98.6678 186.357 98.1972 186.471 98.8247L189.374 101.719C190.809 101.082 187.538 99.1734 187.074 98.8073ZM180.06 103.017C179.824 102.712 179.369 101.797 179.124 101.736L177.873 102.294L182.404 110.051C182.78 109.572 183.812 109.023 183.654 108.369C182.5 106.547 181.398 104.699 180.069 103L180.06 103.017Z" fill="#F3EBD3"/>
<path id="hand" d="M26.2463 63.7679V64.8574L25.3805 65.2584C20.3778 75.2036 14.5269 84.652 8.80706 94.1614C8.36102 94.9023 6.86548 98.1099 6.35822 98.2232C6.00838 98.3016 5.54485 97.9443 5.39617 98.0489C5.31746 98.1099 5.29997 98.4673 5.1163 98.5893C4.74023 98.842 4.08429 98.72 3.77818 99.0077C3.70822 99.0774 2.83363 100.472 2.74617 100.646C1.18941 103.802 3.83066 101.919 5.0201 101.745C7.32026 101.405 6.97917 103.819 6.97917 105.44C7.85376 104.795 8.8158 102.817 10.1714 103.531C11.2122 104.081 12.1655 106.861 12.8651 106.791C13.3811 106.739 16.3198 105.205 16.7483 104.795C18.0689 103.514 19.8269 99.2866 20.9288 97.4475C21.5323 96.4364 24.331 91.7209 25.2318 91.6337C28.1442 91.3635 24.8557 97.1249 24.2872 98.2406C24.0948 98.6241 23.2465 99.4435 23.0453 99.8357C20.544 104.63 20.6665 107.41 14.833 109.45C12.5066 110.26 10.5825 110.374 9.53296 107.767C9.29683 107.593 8.08115 109.092 7.45145 109.284C4.54782 110.156 3.83941 107.21 3.9531 104.987C-2.99986 105.806 0.446009 97.4126 4.79271 96.8896C4.76647 95.3294 5.71977 93.6908 6.47191 92.3136C8.78082 88.0862 11.8594 83.9373 14.3782 79.8058C17.2118 75.1513 19.8881 69.4683 23.159 65.1538C23.9811 64.073 24.8382 62.8091 26.2376 63.7853L26.2463 63.7679Z" fill="#F3EBD3"/>
<path d="M60.1541 56.6119C61.3785 57.7015 61.9032 61.5628 61.9732 63.1578C62.1044 66.0342 61.291 68.4922 57.8364 67.8385C56.2097 67.5334 52.7638 64.9621 51.5919 64.997C51.417 64.997 51.1371 65.0754 50.9972 65.18C48.111 68.6839 46.3531 72.3099 42.33 67.3068C38.9978 63.1578 38.3944 58.7561 45.2249 59.3227C46.5892 59.436 49.4054 60.6824 50.0788 60.6476C51.5831 60.5604 53.9533 57.1436 55.8161 56.4289C57.0056 55.9669 59.1308 55.7055 60.1628 56.6119H60.1541Z" fill="#F3EBD3"/>
<path d="M74.3399 2.38835C77.6108 5.4739 76.2202 11.6101 74.3749 15.1489C73.6227 16.5871 72.1621 19.0625 70.4917 17.2321C70.6404 13.6149 73.3166 11.1395 73.0192 7.29559C72.8793 5.44775 72.407 4.68072 70.8153 3.7045C66.6697 1.16808 58.4311 4.14903 59.297 9.73614C55.1777 9.74486 51.3645 7.98418 47.1665 8.39384C44.8575 8.62046 41.4467 9.98891 39.3739 11.0784C38.7092 11.4271 36.0155 13.8851 35.6044 12.1157C35.3508 11.0523 39.0503 8.88195 39.9336 8.38512C45.0587 5.50876 50.0001 4.79403 55.6325 6.546C55.9998 6.65931 57.8014 7.5135 57.9064 7.4089C58.5536 2.7893 63.1801 0.313887 67.5531 0.00881882C69.5034 -0.130641 72.9143 1.04605 74.3399 2.38835Z" fill="#F3EBD3"/>
<path d="M119.748 42.1779C121.541 42.1169 123.553 42.2389 125.092 43.2238C125.223 44.6446 119.967 43.6684 119.04 44.139C118.41 45.1501 118.235 50.1271 119.442 50.5019C119.923 50.6501 123.308 49.5692 124.296 49.5867C124.672 49.5867 124.865 49.6128 125.092 49.944C124.323 51.5827 122.066 51.3997 120.588 52.1318L120.457 52.6025C121.436 53.0383 122.101 54.4068 122.879 55.1651C123.772 56.028 127.069 57.8322 126.15 59.3314C125.844 59.6452 125.521 59.776 125.092 59.6975C124.917 59.6714 122.136 58.4249 121.865 58.268C121.156 57.8497 120.002 56.7166 119.407 56.089C118.874 55.5224 118.034 53.8315 117.326 53.7792C116.617 53.7269 113.032 56.856 112.166 57.4313C111.65 57.7712 110.049 58.852 109.533 58.5295C109.332 58.3029 109.105 58.0153 109.175 57.6841C109.411 56.6033 115.297 52.6548 116.495 51.7745C115.166 49.4908 115.717 47.2159 115.813 44.7317L109.175 47.0503C108.309 47.1897 107.88 46.719 108.265 45.891C108.965 44.3744 114.982 42.9362 116.705 42.5963C116.88 42.4829 117.3 41.0709 117.466 40.7397C118.48 38.8134 119.591 36.4077 120.842 34.5599C121.445 33.6708 122.949 31.4046 123.448 33.6621L119.766 42.1779H119.748Z" fill="#F3EBD3"/>
<path id="heart" d="M104.329 20.2303C104.653 20.5877 105.23 22.3135 105.3 22.8539C105.808 26.9593 103.193 32.2936 99.6417 34.4291C98.496 33.9584 97.3765 34.4814 96.1958 34.2373C90.5985 33.1042 87.1876 20.2303 94.3155 19.7684C95.9422 19.6638 97.0792 21.0845 97.2978 21.0932C97.8138 21.1107 98.9508 20.056 99.5367 19.8294C100.543 19.4459 103.577 19.3936 104.329 20.2216V20.2303ZM98.461 25.8349C97.7526 26.6629 97.1841 26.9157 96.2658 26.0615C95.5661 25.399 95.1988 21.4767 93.3359 23.159C91.4731 24.8412 94.2455 32.7294 97.4115 32.6684C97.7526 31.4655 98.9683 30.7682 99.7991 29.6003C101.251 27.5694 102.449 25.2857 102.064 22.7057C100.989 22.6447 99.598 23.0021 99.0207 23.9783C98.6622 24.5884 99.2656 24.8761 98.4523 25.8261L98.461 25.8349Z" fill="#F3EBD3"/>
<path d="M24.9782 55.0604C25.2493 55.5485 25.8616 55.505 25.8091 56.6294C25.7129 58.7823 22.8355 56.7252 22.1795 55.7577C19.1885 51.3386 20.6927 37.105 21.7335 31.7358C22.0309 30.2017 23.5964 23.4118 24.401 22.5837C24.8121 22.1566 25.6254 22.0085 25.984 22.5837C25.2843 25.9743 24.6196 29.365 24.1561 32.7904C23.439 38.0638 22.4857 50.5803 24.9695 55.0604H24.9782Z" fill="#F3EBD3"/>
<path d="M30.3919 4.74165C32.6483 5.56969 34.0914 8.48092 34.5374 10.6687C34.7736 11.8367 35.3508 14.1465 33.2606 13.5189C31.5289 12.9959 31.5201 10.6774 30.6543 9.21308C28.8789 6.20598 23.6051 6.86841 21.5411 9.30896C20.9376 10.0237 20.6228 12.5601 20.7015 13.5625C20.8939 16.1861 22.8005 18.9927 24.6546 20.7534C23.7363 21.6686 22.2495 20.6749 21.4274 20.0386C18.7162 17.9555 17.8766 13.5712 18.1564 10.3288C18.2614 9.14335 18.4888 8.5768 19.1972 7.66159C21.8297 4.25354 26.3776 3.27732 30.4007 4.75037L30.3919 4.74165Z" fill="#F3EBD3"/>
<path d="M71.0689 21.3461C72.1534 21.0062 72.9055 22.3049 73.439 23.0981C77.5233 29.1907 79.0364 38.5432 78.1268 45.7603C77.8994 47.5297 77.3922 52.0534 74.7597 50.5106C73.8588 49.578 74.987 45.6993 75.1007 44.3744C75.7567 36.8436 75.1532 31.5528 72.1184 24.6408C71.7948 23.8999 70.894 22.6535 70.7715 22.026C70.7016 21.686 70.6578 21.4681 71.0601 21.3461H71.0689Z" fill="#F3EBD3"/>
<path d="M154.583 43.3721C155.633 44.8974 154.417 46.5884 153.35 47.7389C150.63 50.6501 146.415 51.8879 143.808 48.1922C143.065 48.227 142.077 50.3015 139.969 49.9616C138.36 49.7001 136.392 47.3293 136.742 45.6732C138.482 44.8451 138.919 48.0091 140.502 47.7041C141.727 47.4687 142.558 44.4529 144.281 44.4791C146.004 44.5052 145.881 48.6716 149.205 47.0939C151.417 46.048 152.073 42.9363 154.583 43.3808V43.3721Z" fill="#F3EBD3"/>
<path d="M151.216 96.7764C150.621 96.2622 147.866 92.9239 149.187 92.4881C150.508 92.0522 150.368 93.072 150.753 93.534C152.213 95.2598 154.233 96.7416 155.974 94.3969C156.341 93.9001 156.262 93.2115 156.927 93.0285C158.493 92.5927 158.405 93.595 159.402 94.0657C159.874 94.2836 161.23 94.6322 161.72 94.5277C163.093 94.2313 163.53 90.9278 165.384 91.3549C166.959 91.721 165.699 94.9809 165.174 95.9223C164.081 97.8747 161.659 98.171 159.647 97.5522C158.668 97.2471 158.195 96.2796 157.102 96.9072C156.192 97.4302 156.359 97.927 154.872 97.927C153.56 97.927 152.231 97.6655 151.225 96.7939L151.216 96.7764Z" fill="#F3EBD3"/>
<path d="M163.898 60.7347C163.6 60.4819 161.475 60.8654 161.055 61.153C160.635 61.4407 160.662 63.0532 159.385 63.0096C157.601 62.9573 158.58 59.497 155.904 60.0112C155.283 60.1332 153.49 61.9201 153.534 62.443C153.551 62.6871 154.242 63.027 153.682 63.367C151.872 64.2909 151.977 62.4779 152.414 61.1705C153.123 59.0263 155.257 57.161 157.644 57.7973C158.23 57.9542 159.367 58.9914 159.612 59.0001C159.743 59.0001 161.239 58.1372 162 57.9803C165.253 57.3005 167.868 59.3052 165.769 62.443C164.107 63.2449 164.029 60.848 163.889 60.7259L163.898 60.7347Z" fill="#F3EBD3"/>
<path d="M45.8808 28.8072C46.7554 27.8485 51.347 27.4911 52.6151 27.8659C53.6384 28.171 54.0932 29.1908 53.9358 30.2193C53.6734 32.0061 49.7202 33.3048 48.0848 33.0782C46.012 32.7993 44.2453 30.5854 45.8808 28.7985V28.8072Z" fill="#F3EBD3"/>
<path d="M140.196 84.8178V85.4976L139.488 85.6197C139.47 87.5372 140.301 89.6727 142.444 89.8819C143.441 89.9778 145.479 89.2107 145.706 90.7448C146.03 92.9151 141.578 92.3399 140.266 91.5641C138.281 90.3962 136.838 86.2995 138.736 84.5999L140.187 84.809L140.196 84.8178Z" fill="#F3EBD3"/>
<path d="M140.791 69.8606C138.561 67.176 141.832 60.9265 145.54 63.8551C145.811 64.0643 147.009 65.3543 146.485 65.703C145.776 66.1736 145.278 65.302 144.692 65.1626C142.488 64.6483 142.488 66.9581 142.741 68.4835C142.864 69.2156 143.642 69.7909 143.021 70.5841C142.33 71.4644 141.289 70.4533 140.8 69.8606H140.791Z" fill="#F3EBD3"/>
<path d="M143.047 42.3434C142.628 41.5763 141.788 41.5589 141.351 40.6873C139.199 36.3815 148.277 36.6517 146.222 40.6437C145.794 41.4805 144.009 42.753 143.056 42.3521L143.047 42.3434Z" fill="#F3EBD3"/>
<path d="M155.23 36.7651C154.277 38.4561 151.155 38.09 151.164 36.033C151.181 32.2065 157.566 32.6249 155.23 36.7651Z" fill="#F3EBD3"/>
<path d="M137.118 32.9735C138.919 34.7604 136.558 38.918 134.398 36.9569C132.238 34.9957 135.482 31.3523 137.118 32.9735Z" fill="#F3EBD3"/>
<path d="M51.8193 42.3782C51.4257 43.0058 48.8369 42.3782 48.627 41.5589C48.627 39.0574 52.9737 40.5478 51.8193 42.3782Z" fill="#F3EBD3"/>
<path d="M40.8782 26.4624C41.779 26.4276 42.4175 27.5868 41.7353 28.2667C41.0531 28.9466 39.9074 28.4323 39.1728 28.0575C38.5081 27.09 40.1086 26.4973 40.8782 26.4624Z" fill="#F3EBD3"/>
<path d="M56.1047 25.6694C55.9123 25.4776 55.7811 24.9982 55.8423 24.728C56.3321 23.8825 57.2854 23.6036 58.0288 24.3271C58.4661 25.0157 56.9443 26.5148 56.096 25.6607L56.1047 25.6694Z" fill="#F3EBD3"/>
<path d="M153.166 75.1165C155.51 74.5674 156.673 77.1299 154.951 78.7599C154.251 79.4223 153.219 79.2131 152.44 78.7512C150.936 77.8621 151.575 75.4826 153.166 75.1165Z" fill="#F3EBD3"/>
<path d="M167.238 74.7767C166.434 73.4954 167.606 71.4471 169.163 71.3861C171.944 71.2728 171.559 75.8488 168.673 75.5612C168.323 75.5263 167.378 75.0033 167.238 74.7767Z" fill="#F3EBD3"/>
</g>
<defs>
<clipPath id="clip0_186_609">
<rect width="209" height="162" fill="white"/>
</clipPath>
</defs>
</svg>
